ffmpeg version 8.1.2-essentials_build-www.gyan.dev Copyright (c) 2000-2026 the FFmpeg developers
  built with gcc 16.1.0 (Rev2, Built by MSYS2 project)
  configuration: --enable-gpl --enable-version3 --enable-static --disable-w32threads --disable-autodetect --enable-cairo --enable-fontconfig --enable-iconv --enable-gnutls --enable-libxml2 --enable-gmp --enable-bzlib --enable-lzma --enable-zlib --enable-libsrt --enable-libssh --enable-libzmq --enable-avisynth --enable-sdl2 --enable-libwebp --enable-libx264 --enable-libx265 --enable-libxvid --enable-libaom --enable-libopenjpeg --enable-libvpx --enable-mediafoundation --enable-libass --enable-libfreetype --enable-libfribidi --enable-libharfbuzz --enable-libvidstab --enable-libvmaf --enable-libzimg --enable-amf --enable-cuda-llvm --enable-cuvid --enable-dxva2 --enable-d3d11va --enable-d3d12va --enable-ffnvcodec --enable-libvpl --enable-nvdec --enable-nvenc --enable-vaapi --enable-openal --enable-libgme --enable-libopenmpt --enable-libopencore-amrwb --enable-libmp3lame --enable-libtheora --enable-libvo-amrwbenc --enable-libgsm --enable-libopencore-amrnb --enable-libopus --enable-libspeex --enable-libvorbis --enable-librubberband
  libavutil      60. 26.102 / 60. 26.102
  libavcodec     62. 28.102 / 62. 28.102
  libavformat    62. 12.102 / 62. 12.102
  libavdevice    62.  3.102 / 62.  3.102
  libavfilter    11. 14.102 / 11. 14.102
  libswscale      9.  5.102 /  9.  5.102
  libswresample   6.  3.102 /  6.  3.102
[aist#0:0/pcm_s16le @ 000001531db387c0] Guessed Channel Layout: mono
Input #0, wav, from 'E:\2026 Program Projects\Transcriber Project\AITranscriber\storage\app/private/audio-upload-sessions/12317a89-f359-4ff1-8de8-7d8052dc7a64\chunk_00004-speech.wav':
  Metadata:
    encoder         : Lavf62.12.102
  Duration: 00:04:45.50, bitrate: 256 kb/s
  Stream #0:0: Audio: pcm_s16le ([1][0][0][0] / 0x0001), 16000 Hz, mono, s16, 256 kb/s
Stream mapping:
  Stream #0:0 -> #0:0 (pcm_s16le (native) -> opus (libopus))
Press [q] to stop, [?] for help
Output #0, ogg, to 'E:\2026 Program Projects\Transcriber Project\AITranscriber\storage\app/private/audio-upload-sessions/12317a89-f359-4ff1-8de8-7d8052dc7a64\chunk_00004-speech-online.ogg':
  Metadata:
    encoder         : Lavf62.12.102
  Stream #0:0: Audio: opus, 16000 Hz, mono, s16, 32 kb/s
    Metadata:
      encoder         : Lavc62.28.102 libopus
size=     234KiB time=00:01:01.91 bitrate=  31.0kbits/s speed= 119x elapsed=0:00:00.52    size=     256KiB time=00:01:50.37 bitrate=  19.0kbits/s speed= 107x elapsed=0:00:01.03    size=     512KiB time=00:02:39.37 bitrate=  26.3kbits/s speed= 103x elapsed=0:00:01.54    size=     768KiB time=00:03:31.37 bitrate=  29.8kbits/s speed= 102x elapsed=0:00:02.06    size=     768KiB time=00:04:18.27 bitrate=  24.4kbits/s speed= 100x elapsed=0:00:02.58    [out#0/ogg @ 000001531db2fcc0] video:0KiB audio:1087KiB subtitle:0KiB other streams:0KiB global headers:0KiB muxing overhead: 1.988224%
size=    1109KiB time=00:04:45.50 bitrate=  31.8kbits/s speed= 100x elapsed=0:00:02.84    
